<svg width="252.9" height="76.201" viewBox="0 0 252.9 76.201" xmlns="http://www.w3.org/2000/svg"><g id="svgGroup" stroke-linecap="round" fill-rule="evenodd" font-size="9pt" stroke="#000" stroke-width="0.25mm" fill="#000" style="stroke:#000;stroke-width:0.25mm;fill:#000"><path d="M 77.4 39.9 L 77.4 75.2 L 64.8 75.2 L 64.8 42.5 A 25.25 25.25 0 0 0 64.606 39.262 Q 64.111 35.443 62.35 33.25 Q 59.9 30.2 54.8 30.2 A 18.752 18.752 0 0 0 51.101 30.539 Q 48.96 30.971 47.369 31.952 A 8.644 8.644 0 0 0 44.4 35 A 17.273 17.273 0 0 0 42.749 38.993 Q 41.6 43.035 41.6 48.8 L 41.6 75.2 L 28.9 75.2 L 28.9 21 L 38.7 21 L 40.5 28.3 L 41.1 28.3 Q 42.9 25.5 45.5 23.65 Q 48.1 21.8 51.25 20.9 A 23.706 23.706 0 0 1 56.447 20.043 A 27.671 27.671 0 0 1 58 20 A 29.065 29.065 0 0 1 63.596 20.506 Q 68.874 21.543 72.3 24.7 A 14.072 14.072 0 0 1 75.875 30.151 Q 76.733 32.405 77.108 35.208 A 35.423 35.423 0 0 1 77.4 39.9 Z M 210.3 44.6 L 210.3 51.1 L 174.6 51.1 A 22.658 22.658 0 0 0 175.164 55.681 Q 175.823 58.477 177.241 60.597 A 12.635 12.635 0 0 0 178.7 62.4 Q 182.6 66.4 189.8 66.4 Q 194.9 66.4 199 65.4 Q 203.1 64.4 207.4 62.5 L 207.4 72.5 Q 203.4 74.4 199.1 75.3 Q 194.8 76.2 188.7 76.2 A 34.967 34.967 0 0 1 181.019 75.389 A 28.184 28.184 0 0 1 174.65 73.15 Q 168.5 70.1 165.05 63.9 Q 161.924 58.282 161.631 50.199 A 46.875 46.875 0 0 1 161.6 48.5 A 45.688 45.688 0 0 1 162.081 41.685 Q 162.643 37.966 163.86 34.862 A 25.39 25.39 0 0 1 164.75 32.85 A 23.573 23.573 0 0 1 169.085 26.687 A 20.928 20.928 0 0 1 173.55 23.25 A 24.277 24.277 0 0 1 182.41 20.287 A 31.186 31.186 0 0 1 186.7 20 A 30.975 30.975 0 0 1 192.705 20.555 A 22.881 22.881 0 0 1 199.3 22.9 Q 204.6 25.8 207.45 31.3 Q 210.175 36.559 210.295 43.919 A 41.874 41.874 0 0 1 210.3 44.6 Z M 252.9 64.6 L 252.9 74 A 17.112 17.112 0 0 1 251.232 74.64 Q 249.7 75.144 247.7 75.55 A 33.146 33.146 0 0 1 241.871 76.19 A 37.098 37.098 0 0 1 241 76.2 A 23.666 23.666 0 0 1 236.094 75.71 A 19.628 19.628 0 0 1 232.65 74.65 A 12.163 12.163 0 0 1 227.179 70.132 A 15.32 15.32 0 0 1 226.65 69.3 Q 225.011 66.531 224.566 62.17 A 34.261 34.261 0 0 1 224.4 58.7 L 224.4 30.5 L 217.1 30.5 L 217.1 25 L 225.1 20.6 L 229.1 9.1 L 237 9.1 L 237 21 L 252.4 21 L 252.4 30.5 L 237 30.5 L 237 58.6 A 11.448 11.448 0 0 0 237.186 60.735 Q 237.411 61.919 237.909 62.837 A 5.443 5.443 0 0 0 239 64.25 A 6.843 6.843 0 0 0 242.574 65.968 A 9.593 9.593 0 0 0 244.2 66.1 Q 246.6 66.1 248.8 65.65 A 43.585 43.585 0 0 0 251.433 65.029 A 36.413 36.413 0 0 0 252.9 64.6 Z M 155.3 20.6 L 154 32.4 Q 152.8 32.2 151.25 32 A 24.192 24.192 0 0 0 149.242 31.83 A 29.904 29.904 0 0 0 147.9 31.8 Q 145.3 31.8 142.8 32.7 A 13.681 13.681 0 0 0 138.473 35.26 A 15.684 15.684 0 0 0 138.2 35.5 A 12.897 12.897 0 0 0 135.318 39.341 A 15.331 15.331 0 0 0 134.9 40.25 A 14.441 14.441 0 0 0 134.019 43.281 Q 133.76 44.708 133.711 46.338 A 25.579 25.579 0 0 0 133.7 47.1 L 133.7 75.2 L 121 75.2 L 121 21 L 130.8 21 L 132.6 30.4 L 133.2 30.4 Q 134.8 27.5 137.2 25.1 Q 139.6 22.7 142.65 21.35 Q 145.7 20 149.2 20 A 34.445 34.445 0 0 1 150.967 20.048 A 43.613 43.613 0 0 1 152.45 20.15 Q 153.626 20.251 154.508 20.42 A 10.52 10.52 0 0 1 155.3 20.6 Z M 0.6 21 L 13.3 21 L 13.3 75.2 L 0.6 75.2 L 0.6 21 Z M 92.7 21 L 105.4 21 L 105.4 75.2 L 92.7 75.2 L 92.7 21 Z M 174.9 42.2 L 198 42.2 A 20.397 20.397 0 0 0 197.754 38.952 A 14.819 14.819 0 0 0 196.8 35.55 Q 195.6 32.7 193.15 31.05 Q 190.877 29.519 187.441 29.409 A 16.846 16.846 0 0 0 186.9 29.4 Q 181.7 29.4 178.55 32.7 Q 175.892 35.485 175.121 40.334 A 24.347 24.347 0 0 0 174.9 42.2 Z M 9.953 0.449 A 8.823 8.823 0 0 0 7.1 0 A 10.42 10.42 0 0 0 5.313 0.148 A 7.664 7.664 0 0 0 2.05 1.5 Q 0.561 2.59 0.154 4.841 A 10.466 10.466 0 0 0 0 6.7 Q 0 10.3 2.05 11.85 A 7.385 7.385 0 0 0 4.677 13.109 A 9.617 9.617 0 0 0 7.1 13.4 A 9.858 9.858 0 0 0 7.491 13.393 A 7.943 7.943 0 0 0 12 11.85 A 4.583 4.583 0 0 0 13.246 10.459 Q 13.724 9.641 13.934 8.563 A 9.731 9.731 0 0 0 14.1 6.7 Q 14.1 3 12 1.5 A 7.838 7.838 0 0 0 9.953 0.449 Z M 102.053 0.449 A 8.823 8.823 0 0 0 99.2 0 A 10.42 10.42 0 0 0 97.413 0.148 A 7.664 7.664 0 0 0 94.15 1.5 Q 92.661 2.59 92.254 4.841 A 10.466 10.466 0 0 0 92.1 6.7 Q 92.1 10.3 94.15 11.85 A 7.385 7.385 0 0 0 96.777 13.109 A 9.617 9.617 0 0 0 99.2 13.4 A 9.858 9.858 0 0 0 99.591 13.393 A 7.943 7.943 0 0 0 104.1 11.85 A 4.583 4.583 0 0 0 105.346 10.459 Q 105.824 9.641 106.034 8.563 A 9.731 9.731 0 0 0 106.2 6.7 Q 106.2 3 104.1 1.5 A 7.838 7.838 0 0 0 102.053 0.449 Z" vector-effect="non-scaling-stroke"/></g></svg>